<svg xmlns="http://www.w3.org/2000/svg" width="64" height="56.889" viewBox="0 0 64 56.889">
  <path id="Icon_awesome-external-link-alt" data-name="Icon awesome-external-link-alt" d="M64,2.667v14.22a2.669,2.669,0,0,1-4.552,1.886L55.48,14.805,28.422,41.863a2.667,2.667,0,0,1-3.771,0l-2.514-2.514a2.667,2.667,0,0,1,0-3.771L49.2,8.52,45.228,4.552A2.669,2.669,0,0,1,47.114,0h14.22A2.667,2.667,0,0,1,64,2.667ZM45.225,30.088l-1.778,1.778a2.667,2.667,0,0,0-.781,1.886V49.778H7.111V14.222H36.444a2.667,2.667,0,0,0,1.885-.781l1.778-1.778a2.667,2.667,0,0,0-1.886-4.552H5.333A5.333,5.333,0,0,0,0,12.444V51.556a5.333,5.333,0,0,0,5.333,5.333H44.444a5.333,5.333,0,0,0,5.333-5.333V31.974A2.667,2.667,0,0,0,45.225,30.088Z" fill="#dfe6e9"/>
</svg>
