<svg xmlns="http://www.w3.org/2000/svg" width="64" height="62" viewBox="0 0 64 62">
  <path id="Icon_awesome-github" data-name="Icon awesome-github" d="M21.406,50.485c0,.256-.3.462-.671.462-.426.038-.723-.167-.723-.462,0-.256.3-.462.671-.462C21.071,49.985,21.406,50.19,21.406,50.485Zm-4.013-.577c-.09.256.168.551.555.628a.607.607,0,0,0,.8-.256c.077-.256-.168-.551-.555-.667A.664.664,0,0,0,17.394,49.908Zm5.7-.218c-.374.09-.632.333-.594.628.039.256.374.423.761.333s.632-.333.594-.59S23.471,49.651,23.1,49.69ZM31.587.563C13.69.563,0,14.062,0,31.844A32.157,32.157,0,0,0,21.871,62.51c1.652.295,2.232-.718,2.232-1.551,0-.795-.039-5.179-.039-7.872,0,0-9.032,1.923-10.929-3.82,0,0-1.471-3.731-3.587-4.692,0,0-2.955-2.013.206-1.974a6.819,6.819,0,0,1,4.981,3.308c2.826,4.949,7.561,3.526,9.406,2.679a7.108,7.108,0,0,1,2.065-4.32c-7.213-.795-14.49-1.833-14.49-14.166a9.685,9.685,0,0,1,3.045-7.551,12.04,12.04,0,0,1,.335-8.7c2.7-.833,8.9,3.461,8.9,3.461a30.673,30.673,0,0,1,16.206,0s6.206-4.308,8.9-3.461a12.035,12.035,0,0,1,.335,8.7c2.065,2.269,3.329,4.038,3.329,7.551,0,12.372-7.6,13.359-14.813,14.166,1.187,1.013,2.194,2.936,2.194,5.949,0,4.32-.039,9.667-.039,10.718,0,.833.594,1.846,2.232,1.551C55.252,58.228,64,46.062,64,31.844,64,14.062,49.484.563,31.587.563ZM12.542,44.78c-.168.128-.129.423.09.667.206.205.5.295.671.128.168-.128.129-.423-.09-.667C13.006,44.7,12.71,44.613,12.542,44.78Zm-1.394-1.038c-.09.167.039.372.3.5a.385.385,0,0,0,.555-.09c.09-.167-.039-.372-.3-.5C11.445,43.575,11.239,43.613,11.148,43.741Zm4.181,4.564c-.206.167-.129.551.168.795.3.295.671.333.839.128.168-.167.09-.551-.168-.795C15.884,48.139,15.5,48.1,15.329,48.305Zm-1.471-1.885c-.206.128-.206.462,0,.756s.555.423.723.295a.582.582,0,0,0,0-.795C14.4,46.382,14.065,46.254,13.858,46.421Z" transform="translate(0 -0.563)" fill="#dfe6e9"/>
</svg>
