<svg xmlns="http://www.w3.org/2000/svg" width="64" height="64" viewBox="0 0 64 64">
  <path id="Icon_ionic-ios-paper" data-name="Icon ionic-ios-paper" d="M15.067,8.3V57.837a2.16,2.16,0,0,1-2.154,2.154h0a2.16,2.16,0,0,1-2.154-2.154V13.221H8.3a4.918,4.918,0,0,0-4.923,4.923V62.452A4.918,4.918,0,0,0,8.3,67.375H62.621a4.757,4.757,0,0,0,4.754-4.754V8.3a4.918,4.918,0,0,0-4.923-4.923l-42.769.308A4.41,4.41,0,0,0,15.067,8.3Zm10.154,4.923H38.144A2.16,2.16,0,0,1,40.3,15.375h0a2.16,2.16,0,0,1-2.154,2.154H25.221a2.16,2.16,0,0,1-2.154-2.154h0A2.16,2.16,0,0,1,25.221,13.221Zm0,24.615H47.99a2.16,2.16,0,0,1,2.154,2.154h0a2.16,2.16,0,0,1-2.154,2.154H25.221a2.16,2.16,0,0,1-2.154-2.154h0A2.16,2.16,0,0,1,25.221,37.837ZM55.375,54.452H25.221A2.16,2.16,0,0,1,23.067,52.3h0a2.16,2.16,0,0,1,2.154-2.154H55.375A2.16,2.16,0,0,1,57.529,52.3h0A2.16,2.16,0,0,1,55.375,54.452Zm0-24.615H25.221a2.16,2.16,0,0,1-2.154-2.154h0a2.16,2.16,0,0,1,2.154-2.154H55.375a2.16,2.16,0,0,1,2.154,2.154h0A2.16,2.16,0,0,1,55.375,29.837Z" transform="translate(-3.375 -3.375)" fill="#dfe6e9"/>
</svg>
