<svg xmlns="http://www.w3.org/2000/svg" width="64" height="51.192" viewBox="0 0 64 51.192">
  <path id="Icon_awesome-code" data-name="Icon awesome-code" d="M27.889,51.145l-6.1-1.77a1.2,1.2,0,0,1-.82-1.49L34.618.869a1.2,1.2,0,0,1,1.49-.82l6.1,1.77a1.2,1.2,0,0,1,.82,1.49L29.378,50.325a1.2,1.2,0,0,1-1.49.82Zm-11.4-11.219,4.35-4.64a1.2,1.2,0,0,0-.08-1.72L11.7,25.6l9.059-7.969a1.191,1.191,0,0,0,.08-1.72l-4.35-4.64a1.2,1.2,0,0,0-1.7-.05L.381,24.717a1.192,1.192,0,0,0,0,1.75L14.79,39.976a1.192,1.192,0,0,0,1.7-.05Zm32.717.06L63.616,26.477a1.192,1.192,0,0,0,0-1.75L49.207,11.208a1.211,1.211,0,0,0-1.7.05l-4.35,4.64a1.2,1.2,0,0,0,.08,1.72L52.3,25.6l-9.059,7.969a1.191,1.191,0,0,0-.08,1.72l4.35,4.64A1.2,1.2,0,0,0,49.207,39.986Z" transform="translate(0.002 -0.003)" fill="#dfe6e9"/>
</svg>
